<?xml version="1.0" encoding="UTF-8"?>
<!-- Generated by Pixelmator Pro 2.4.5 -->
<svg width="512" height="512" viewBox="0 0 512 512" xmlns="http://www.w3.org/2000/svg" xmlns:xlink="http://www.w3.org/1999/xlink">
    <g id="g15">
        <path id="path181" fill="#5b87fd" stroke="none" d="M 167.112213 261.588165 C 181.288208 247.539154 202.208206 238.542145 214.327209 222.549164 C 234.210205 196.307159 222.187195 156.520142 189.112213 148.487854 C 160.688217 141.584778 141.276215 164.795166 120.073212 179.178162 C 108.511215 187.020142 97.43721 195.660156 86.112213 203.84314 C 69.640213 215.745148 47.970207 229.329163 45.296204 251.588165 C 40.213005 293.91217 75.39621 312.168152 105.827209 333.036163 C 141.663208 357.612152 175.591217 393.145172 222.112213 374.136169 C 261.223206 358.154175 263.928223 314.506165 269.551208 278.588165 C 271.491211 266.194153 275.022217 254.009155 276.812195 241.588165 C 280.083221 218.884155 281.688202 191.307159 307.112213 182.136169 C 325.216217 175.605164 337.720215 185.045166 352.112213 194.842163 C 370.60321 207.430145 388.912201 220.299164 407.112213 233.316162 C 416.668213 240.151154 429.656219 246.386139 434.759216 257.588165 C 439.642212 268.303162 433.52121 278.853149 425.111206 285.584167 C 404.838196 301.809143 382.985199 316.354156 362.112213 331.809174 C 354.65921 337.328156 341.404205 351.887146 331.112213 347.498169 C 318.778198 342.237152 318.470215 328.07016 328.117218 320.25415 C 343.408203 307.863159 359.389221 296.057159 375.112213 284.214172 C 380.532196 280.131165 390.685211 274.85614 391.879211 267.587158 C 393.260223 259.176147 384.027222 254.350159 378.112213 250.502167 C 361.425201 239.645142 346.012207 224.160156 328.112213 215.424164 C 317.792206 210.387146 304.864197 217.57016 305.245209 229.588165 C 305.665222 242.807159 322.698212 250.044159 332.112213 256.563171 C 335.075195 258.615173 343.056213 262.372162 343.056213 266.588165 C 343.056213 269.519165 339.105225 271.687164 337.112213 273.238159 C 330.837219 278.123169 324.319214 282.716156 318.112213 287.679138 C 309.235199 294.777161 299.392212 301.446167 293.645203 311.588165 C 283.671204 329.191162 288.170197 353.377167 302.408203 367.124146 C 330.729218 394.470154 359.941223 372.259155 385.112213 354.143158 C 422.287201 327.388153 485.102234 297.590149 462.764221 242.588165 C 453.811218 220.543152 425.868225 209.373138 408.112213 195.507141 C 392.733215 183.497162 376.046204 172.867157 360.112213 161.589172 C 349.722198 154.235168 337.108215 147.922058 324.112213 147.602753 C 316.410217 147.413574 308.555206 147.079559 301.112213 149.309662 C 262.963196 160.740173 254.382202 190.955139 247.447205 225.588165 C 243.519196 245.204163 239.721222 264.846161 236.550201 284.588165 C 233.706207 302.294159 232.952209 324.342163 218.9422 337.262146 C 198.464203 356.148163 177.111206 343.998169 158.112213 330.93515 C 141.026215 319.188171 124.008209 307.337158 107.112213 295.29718 C 95.554214 287.061157 75.280212 277.416138 76.220207 260.588165 C 76.942207 247.669159 89.635208 240.153137 99.112213 233.563141 C 122.734207 217.138153 145.346207 193.984161 171.112213 181.146149 C 179.913208 176.761169 189.469208 182.597168 192.242203 191.588165 C 194.749207 199.714142 186.581207 205.793152 181.112213 210.098145 C 166.014206 221.980164 150.398209 233.255157 135.112213 244.923157 C 128.982208 249.602142 115.614212 257.186157 121.71521 266.573181 C 125.406204 272.250153 133.613205 276.305176 139.112213 280.090149 C 150.877213 288.186157 162.568207 296.464172 174.112213 304.870178 C 179.843216 309.043152 186.361206 315.713165 194.112213 314.309174 C 204.93721 312.349152 211.220215 299.197144 205.254211 289.627167 C 198.400208 278.633179 178.079208 268.35614 167.112213 261.588165 Z"/>
    </g>
</svg>
