<?xml version="1.0" encoding="UTF-8"?>
<svg width="104" height="56" viewBox="0 0 104 56" fill="none" xmlns="http://www.w3.org/2000/svg">
    <path
        d="M30.0369 27.2208C33.4864 23.8907 38.577 21.7582 41.5259 17.9673C46.3641 11.747 43.4385 2.3162 35.3903 0.412274C28.4737 -1.22399 23.7501 4.27765 18.5907 7.6869C15.7773 9.54572 13.0826 11.5937 10.3268 13.5333C6.31865 16.3545 1.0456 19.5744 0.394925 24.8505C-0.841991 34.8827 7.71928 39.21 15.1242 44.1564C23.8443 49.9817 32.1001 58.4042 43.4203 53.8985C52.9373 50.1102 53.5955 39.7642 54.9638 31.2504C55.4359 28.3126 56.2951 25.4244 56.7306 22.4802C57.5266 17.0986 57.9171 10.5619 64.1037 8.38805C68.509 6.83998 71.5516 9.07758 75.0537 11.3998C79.5532 14.3836 84.0084 17.434 88.4371 20.5194C90.7624 22.1395 93.9228 23.6174 95.1645 26.2727C96.3527 28.8125 94.8633 31.3132 92.8168 32.9087C87.8837 36.7545 82.5661 40.2022 77.487 43.8656C75.6735 45.1737 72.4481 48.6247 69.9437 47.5844C66.9424 46.3373 66.8675 42.9793 69.2149 41.1266C72.9357 38.1895 76.8244 35.3911 80.6504 32.5839C81.9693 31.6161 84.4398 30.3658 84.7304 28.6428C85.0664 26.6491 82.8197 25.5052 81.3804 24.5931C77.3199 22.0196 73.5694 18.3491 69.2137 16.2784C66.7025 15.0845 63.5567 16.7871 63.6494 19.6358C63.7516 22.7691 67.8963 24.4845 70.187 26.0297C70.908 26.5161 72.8501 27.4067 72.8501 28.406C72.8501 29.1007 71.8886 29.6146 71.4037 29.9823C69.8768 31.1402 68.2907 32.2289 66.7803 33.4053C64.6203 35.0877 62.2251 36.6685 60.8267 39.0725C58.3997 43.245 59.4944 48.9779 62.959 52.2364C69.8505 58.7183 76.9588 53.4535 83.0837 49.1595C92.1297 42.8176 107.415 35.7545 101.979 22.7172C99.8005 17.4918 93.001 14.8441 88.6804 11.5574C84.9382 8.71065 80.8777 6.19098 77.0004 3.51772C74.4721 1.77458 71.4027 0.278161 68.2403 0.202476C66.3662 0.157629 64.4548 0.0784604 62.6437 0.607069C53.3607 3.31648 51.2727 10.4784 49.5851 18.6876C48.6293 23.3373 47.7051 27.9931 46.9335 32.6726C46.2415 36.8695 46.058 42.0956 42.6489 45.1581C37.6659 49.6347 32.47 46.7547 27.8469 43.6584C23.6893 40.8739 19.5482 38.0649 15.4369 35.211C12.6244 33.2588 7.69105 30.9726 7.91979 26.9838C8.09547 23.9216 11.1841 22.14 13.4902 20.578C19.2382 16.6847 24.7405 11.1964 31.0102 8.15338C33.1518 7.11399 35.4771 8.49732 36.1519 10.6285C36.7619 12.5546 34.7744 13.9955 33.4436 15.016C29.7697 17.8324 25.9698 20.505 22.2502 23.2707C20.7586 24.3797 17.5057 26.1774 18.9903 28.4024C19.8884 29.7481 21.8855 30.7092 23.2236 31.6064C26.0864 33.5254 28.9312 35.4876 31.7402 37.4801C33.1348 38.4692 34.7208 40.0503 36.6069 39.7175C39.241 39.2529 40.7699 36.1354 39.3181 33.867C37.6503 31.2611 32.7055 28.8251 30.0369 27.2208Z"
        fill="white" />
</svg>
    